<svg width="159" height="155" viewBox="0 0 159 155" fill="none" xmlns="http://www.w3.org/2000/svg">
<path d="M63.7898 98.4457C59.6516 99.2871 54.364 100.768 50.1751 104.791C48.0751 106.811 47.028 109.232 47.231 111.609C47.4254 113.889 48.7772 115.986 51.0373 117.515C53.4599 119.161 56.1305 120.408 58.9475 121.208C65.0515 122.915 71.3586 123.785 77.6963 123.794C82.4259 123.792 87.1426 123.302 91.7719 122.333C96.2602 121.397 101.455 119.983 105.926 116.603C108.087 114.971 109.358 112.963 109.603 110.798C109.85 108.613 109.05 106.348 107.286 104.244C104.825 101.306 101.571 99.2912 97.3373 98.0833C95.7533 97.6299 94.1075 97.3273 92.516 97.033C91.9931 96.9361 91.4705 96.84 90.948 96.7378C91.5883 95.7385 92.2315 94.7429 92.8775 93.7519C94.5098 91.2372 96.198 88.6359 97.752 86.0153C102.398 78.1773 107.871 67.6316 108.952 55.5561C110.091 42.8301 106.086 33.7202 96.7065 27.7072C90.2006 23.5361 82.9409 22.1333 75.1322 23.5403C63.3261 25.6662 55.6109 32.5779 52.2006 44.0837C50.1678 50.9443 50.9118 57.8815 51.7889 63.1595C53.2251 71.8196 56.4702 80.4854 62.3119 91.2578C63.2228 92.9377 64.185 94.5393 65.2041 96.2348C65.5591 96.8244 65.9148 97.4188 66.2714 98.0182L65.8186 98.0912C65.1112 98.2054 64.4466 98.3126 63.7898 98.4457ZM78.9682 102.663C78.6967 103.014 78.4234 103.368 78.1484 103.725C72.6558 99.0348 69.1398 93.0383 66.1591 87.2442C62.3231 79.7879 58.2235 70.8154 56.905 60.7961C55.7776 52.2214 56.6213 45.8917 59.6412 40.2662C63.3928 33.2783 70.8503 28.8653 79.59 28.4608C80.0179 28.4411 80.4435 28.4311 80.8665 28.4311C88.9085 28.4311 96.0193 31.9881 100.067 38.0959C102.644 41.9854 103.781 46.5181 103.65 52.3596C103.501 58.864 101.705 65.57 97.9974 73.462C93.813 82.371 88.3485 90.9511 81.2922 99.6923C80.5049 100.667 79.7584 101.636 78.9682 102.663ZM68.2751 101.658C68.7157 101.678 69.1353 101.852 69.461 102.15C71.9473 105.001 75.0258 107.274 78.4811 108.809C79.9935 109.477 81.3404 109.068 82.481 107.593L83.258 106.585C84.3104 105.217 85.3992 103.803 86.5328 102.475C86.8685 102.057 87.3515 101.782 87.8826 101.709C91.7691 102.025 95.8554 102.62 99.4052 104.81C100.902 105.765 102.242 106.945 103.38 108.309C103.627 108.555 103.821 108.849 103.951 109.173C104.08 109.496 104.143 109.843 104.134 110.192C104.075 110.547 103.943 110.886 103.749 111.188C103.554 111.491 103.3 111.751 103.002 111.952C101.657 113.024 100.183 113.92 98.6134 114.621C92.7223 117.24 85.9311 118.546 77.2429 118.728C70.9396 118.495 64.799 118.123 58.9717 116.157C57.0721 115.537 55.264 114.665 53.5949 113.565C52.4246 112.775 51.7769 111.852 51.7221 110.894C51.6703 109.991 52.157 109.075 53.1291 108.242C55.2234 106.448 57.5692 104.972 60.0917 103.861C62.106 102.982 64.3539 102.495 66.528 102.025C67.0604 101.909 67.5929 101.794 68.1216 101.673C68.172 101.663 68.2235 101.658 68.2751 101.658Z" fill="#94B78A"/>
<path d="M91.4316 50.244C91.4316 50.131 91.4362 50.0181 91.439 49.9056C91.4592 49.4109 91.4526 48.9154 91.4184 48.4215C91.2764 46.52 90.6579 44.6851 89.6194 43.0865C88.5814 41.4878 87.1571 40.1771 85.4787 39.2758C83.8477 38.4152 82.0238 37.9868 80.1806 38.0316C78.3375 38.0764 76.5364 38.593 74.9491 39.5319C71.202 41.6599 68.85 45.2436 68.1484 49.8953C67.2372 55.9355 71.5249 61.8463 77.7054 63.0711C78.5378 63.2376 79.3844 63.3223 80.2332 63.3241C85.4351 63.3241 89.6816 60.0027 90.9746 54.6315C91.1747 53.7273 91.3266 52.813 91.4296 51.8926C91.4839 51.4783 91.5374 51.0641 91.6004 50.6518C91.6091 50.5954 91.6062 50.5378 91.5918 50.4825C91.5778 50.4273 91.5527 50.3754 91.5181 50.3301C91.4934 50.2975 91.4642 50.2685 91.4316 50.244ZM86.7572 50.7454L86.7486 50.9181C86.7399 51.1044 86.728 51.3559 86.7074 51.6073C86.4913 54.2251 85.5342 56.262 83.9399 57.4971C82.5222 58.5958 80.6681 58.9845 78.5747 58.6233C77.4819 58.395 76.4464 57.9484 75.53 57.3101C74.6136 56.6719 73.8352 55.8549 73.2415 54.9085C72.7 54.0462 72.3522 53.0765 72.2222 52.0663C72.0922 51.0561 72.1833 50.0295 72.4888 49.058C73.2773 46.3631 74.4423 43.7597 77.6009 42.9624C78.3635 42.7654 79.1475 42.6634 79.9352 42.6587C81.4273 42.6229 82.887 43.098 84.0729 44.0056C85.8451 45.4088 86.7984 47.8026 86.7572 50.7436V50.7454Z" fill="#94B78A"/>
<path d="M2.80593 55.9065C-4.2039 83.4576 1.93438 107.762 21.0631 128.155C21.5608 128.682 22.0687 129.208 22.5759 129.716C32.8516 139.991 45.6503 146.335 55.7913 150.75C60.144 152.651 82.4777 154.959 88.5205 154.06C124.432 148.697 148.064 128.442 156.295 94.5566C157.866 87.9189 158.649 81.1189 158.627 74.2977C158.665 58.229 151.899 39.5479 137.947 25.5567C136.51 24.369 135.078 23.1386 133.694 21.9461C130.693 19.3655 127.59 16.6936 124.344 14.415C99.5459 -3.03844 73.7804 -3.1361 47.7664 6.11914C24.2139 14.4934 9.08782 31.2475 2.80593 55.9065ZM47.8674 14.3689C70.692 4.8841 93.5937 3.21019 115.931 17.4161C120.015 20.0163 130.903 28.8166 132.618 30.1384L132.727 30.2195L132.818 30.3205C141.533 39.5616 151.511 56.4584 151.291 73.8279C151.219 81.2549 150.213 88.6432 148.298 95.8195C142.625 116.443 129.06 131.473 106.829 141.752C84.2281 152.574 51.8171 141.634 43.1936 135.941C33.6624 129.425 25.3226 121.318 18.5388 111.975C7.89943 96.9118 5.51178 75.2593 11.2289 55.4656C13.9047 46.3264 18.5806 37.8972 24.9176 30.7891C31.2546 23.6809 39.094 18.072 47.8674 14.3689V14.3689Z" fill="#94B78A"/>
</svg>
