<svg width="159" height="155" viewBox="0 0 159 155" fill="none" xmlns="http://www.w3.org/2000/svg">
<path d="M2.80593 55.9065C-4.2039 83.4576 1.93438 107.762 21.0631 128.155C21.5608 128.682 22.0687 129.208 22.5759 129.716C32.8516 139.991 45.6503 146.335 55.7913 150.75C60.144 152.651 82.4777 154.959 88.5205 154.06C124.432 148.697 148.064 128.442 156.295 94.5566C157.866 87.9189 158.649 81.1189 158.627 74.2977C158.665 58.229 151.899 39.5479 137.947 25.5567C136.51 24.369 135.078 23.1386 133.694 21.9461C130.693 19.3655 127.59 16.6936 124.344 14.415C99.5459 -3.03844 73.7804 -3.1361 47.7664 6.11914C24.2139 14.4934 9.08782 31.2475 2.80593 55.9065ZM47.8674 14.3689C70.692 4.8841 93.5937 3.21019 115.931 17.4161C120.015 20.0163 130.903 28.8166 132.618 30.1384L132.727 30.2195L132.818 30.3205C141.533 39.5616 151.511 56.4584 151.291 73.8279C151.219 81.2549 150.213 88.6432 148.298 95.8195C142.625 116.443 129.06 131.473 106.829 141.752C84.2281 152.574 51.8171 141.634 43.1936 135.941C33.6623 129.425 25.3226 121.318 18.5388 111.975C7.89943 96.9118 5.51178 75.2593 11.2289 55.4656C13.9047 46.3264 18.5806 37.8972 24.9176 30.7891C31.2546 23.6809 39.094 18.072 47.8674 14.3689Z" fill="#94B78A"/>
<path d="M87.7631 107.898C93.1923 106.431 99.3931 104.48 104.282 99.8714C107.801 96.5531 109.478 92.0516 108.882 87.5194C108.289 83.0121 105.522 79.1183 101.291 76.8365C99.1315 75.6973 96.8143 74.8878 94.4154 74.4349C91.747 73.9187 89.021 73.6033 86.3847 73.2974C85.4092 73.1848 84.4382 73.0712 83.4772 72.9509V40.593C87.9772 40.3043 91.6999 40.8278 95.1589 42.2336C97.7599 43.29 98.8939 44.6709 98.9522 46.8485C98.9925 47.1767 99.1369 47.4833 99.3651 47.7231C99.4361 47.8119 99.5031 47.9045 99.5647 48.0004C99.6036 48.0638 99.6575 48.1169 99.7213 48.1551C99.7851 48.1934 99.8571 48.2157 99.9314 48.2204C100.006 48.2245 100.08 48.211 100.148 48.1811C100.216 48.1511 100.276 48.1055 100.323 48.0479C100.735 47.5449 101.038 46.9623 101.214 46.3367C101.39 45.7111 101.435 45.0559 101.345 44.4121C101.25 43.7499 101.02 43.1144 100.667 42.5455C100.315 41.9766 99.8494 41.4863 99.299 41.1055C97.5911 39.8234 95.6559 38.8758 93.5956 38.3126C91.2206 37.7791 88.819 37.3713 86.401 37.091C85.5522 36.9774 84.7094 36.8647 83.8774 36.7426V34.9138C83.8742 33.1039 83.8711 31.2587 83.886 29.4123C83.8901 28.9064 83.919 28.3848 83.9462 27.8803C84.0245 26.909 84.026 25.9331 83.9507 24.9615C83.8742 24.2304 82.9435 22.9313 82.1681 23.0028C81.7008 23.0688 81.2561 23.2459 80.8716 23.5194C80.487 23.7928 80.1738 24.1546 79.9583 24.5743C79.6459 25.5079 79.4727 26.4823 79.4444 27.4663C79.4277 27.6853 79.4105 27.9043 79.3901 28.121C79.181 30.3579 78.9918 32.5967 78.8017 34.8626L78.5975 37.2642L77.9819 37.3827C77.3282 37.5098 76.7144 37.6289 76.1029 37.7447C67.8612 39.2704 62.0155 42.1706 57.7061 46.8725C53.8413 51.0894 52.2208 56.5505 53.2614 61.8551C54.2876 67.0868 57.7835 71.4618 62.8525 73.8598C65.2829 74.9254 67.8081 75.7601 70.3948 76.3529C72.0063 76.7696 73.6734 77.0315 75.2863 77.2863C75.8716 77.3768 76.4573 77.4704 77.0403 77.57V103.134C69.3202 102.842 60.2587 102.016 51.1638 98.3756C51.0888 98.3453 51.0073 98.3353 50.9272 98.3462C50.8472 98.3575 50.7714 98.3892 50.7075 98.4385C50.5098 98.5806 50.3445 98.7629 50.2225 98.9737C50.1006 99.1841 50.0247 99.418 50 99.6601C49.9992 100.034 50.0736 100.404 50.2188 100.749C50.364 101.093 50.577 101.405 50.8451 101.665C51.6502 102.556 52.5692 103.337 53.5783 103.987C57.1467 106.272 61.2596 107.716 66.1524 108.4C68.7819 108.768 71.3888 109.031 74.1487 109.31C75.2405 109.42 76.3469 109.532 77.4717 109.653C77.4717 109.819 77.4717 109.985 77.4686 110.15C77.4645 110.818 77.46 111.508 77.4763 112.194C77.5763 116.279 77.6868 120.654 77.8162 124.956C77.8465 125.946 77.9027 127.791 79.9596 127.984C80.0714 127.995 80.1805 128 80.2878 128C81.686 128 82.6977 127.113 83.0884 125.523C83.4109 124.295 83.5932 123.034 83.6316 121.765C83.6769 118.637 83.6701 115.549 83.6624 112.279C83.6597 111.157 83.6577 110.02 83.6565 108.869C84.0515 108.779 84.4373 108.692 84.8139 108.607C85.8338 108.376 86.8016 108.156 87.7631 107.898ZM101.162 94.4922C99.8752 95.7649 98.4199 96.8553 96.8374 97.7331C92.5554 100.16 87.8708 101.361 83.408 102.267V78.1337L83.7701 78.1609C88.467 78.4957 92.9026 78.8124 97.1692 80.4824C99.6466 81.452 101.37 82.9261 102.44 84.9902C104.218 88.4153 103.751 91.8788 101.163 94.4922H101.162ZM78.3232 40.9761L77.2943 72.5056C72.9216 72.1107 68.3397 71.4256 64.2222 69.3425C60.7929 67.6076 58.4254 64.7634 57.5554 61.3338C56.6723 57.8499 57.4196 54.1506 59.6648 50.9138C63.3201 45.64 68.8625 43.4357 73.802 41.9752C74.8146 41.6752 75.8467 41.4712 77.0422 41.2341C77.4536 41.1526 77.8787 41.0684 78.3232 40.9761Z" fill="#94B78A"/>
</svg>
