<svg width="159" height="155" viewBox="0 0 159 155" fill="none" xmlns="http://www.w3.org/2000/svg">
<path d="M2.80593 55.9065C-4.2039 83.4576 1.93438 107.762 21.0631 128.155C21.5608 128.682 22.0687 129.208 22.5759 129.716C32.8516 139.991 45.6503 146.335 55.7913 150.75C60.144 152.651 82.4777 154.959 88.5205 154.06C124.432 148.697 148.064 128.442 156.295 94.5566C157.866 87.9189 158.649 81.1189 158.627 74.2977C158.665 58.229 151.899 39.5479 137.947 25.5567C136.51 24.369 135.078 23.1386 133.694 21.9461C130.693 19.3655 127.59 16.6936 124.344 14.415C99.5459 -3.03844 73.7804 -3.1361 47.7664 6.11914C24.2139 14.4934 9.08782 31.2475 2.80593 55.9065ZM47.8674 14.3689C70.692 4.8841 93.5937 3.21019 115.931 17.4161C120.015 20.0163 130.903 28.8166 132.618 30.1384L132.727 30.2195L132.818 30.3205C141.533 39.5616 151.511 56.4584 151.291 73.8279C151.219 81.2549 150.213 88.6432 148.298 95.8195C142.625 116.443 129.06 131.473 106.829 141.752C84.2281 152.574 51.8171 141.634 43.1936 135.941C33.6623 129.425 25.3226 121.318 18.5388 111.975C7.89943 96.9118 5.51178 75.2593 11.2289 55.4656C13.9047 46.3264 18.5806 37.8972 24.9176 30.7891C31.2546 23.6809 39.094 18.072 47.8674 14.3689Z" fill="#94B78A"/>
<path d="M31.7592 71.1113C32.4673 71.9147 33.1994 72.7443 33.8676 73.5845C43.8421 86.1322 54.8736 98.3387 65.5413 110.143C69.098 114.078 72.7756 118.147 76.3594 122.168C77.5051 123.454 78.5482 124.077 79.6464 124.128C79.7454 124.132 79.8447 124.132 79.9438 124.128C80.9259 124.082 81.9412 123.583 83.1087 122.579C85.1286 120.78 86.9622 118.844 88.59 116.79C101.679 100.788 114.378 85.1643 125.074 71.9913C126.265 70.524 127.428 69.0086 128.554 67.5433C129.579 66.2081 130.639 64.8278 131.715 63.491C132.949 61.9563 132.942 60.483 131.693 59.1116C130.966 58.3178 130.19 57.5561 129.368 56.8293C127.487 55.154 125.601 53.4827 123.71 51.8154C121.794 50.1216 119.88 48.4258 117.97 46.7281C117.185 46.0287 116.402 45.3033 115.644 44.6019C114.746 43.7709 113.818 42.9109 112.876 42.0846C109.935 39.5041 107.477 37.4029 105.143 35.4709C104.544 35.0049 103.795 34.6913 102.984 34.5664C101.992 34.4364 100.983 34.4052 99.9786 34.4731C96.176 34.6355 92.3742 34.8156 89.1891 34.9656L86.3759 35.0968L86.3549 35.0977L78.111 35.8061C70.6343 36.4486 63.5719 37.0561 56.5861 37.6357C54.9494 37.7716 53.1595 38.0751 52.6395 39.9718C52.5731 40.0966 52.4798 40.2105 52.364 40.3076C52.3183 40.3519 52.2734 40.3965 52.2317 40.4403C51.5121 41.1922 50.7941 41.9451 50.0781 42.699C48.3011 44.566 46.4634 46.4965 44.6226 48.3719C39.6655 53.4417 35.0806 58.7539 30.8938 64.2785C30.2695 65.1664 29.7934 66.1195 29.479 67.1108C29.3908 67.3936 29.3708 67.6871 29.4199 67.9744C29.4691 68.2618 29.5864 68.5371 29.7653 68.7845C30.4064 69.5775 31.0942 70.3576 31.7592 71.1113ZM121.708 65.8889C121.691 65.913 121.673 65.9368 121.656 65.9605C121.332 66.401 121.053 66.7821 120.741 67.1509C119.483 68.6373 118.217 70.1192 116.944 71.5969C114.49 74.4569 111.953 77.4147 109.544 80.3741C103.885 87.326 98.1823 94.4218 92.6671 101.284C90.3658 104.148 88.0632 107.011 85.7591 109.873C85.6641 109.992 85.5698 110.109 85.4745 110.223C85.745 109.458 86.0269 108.673 86.3179 107.906C87.7722 104.073 89.227 100.241 90.6813 96.4098C93.9898 87.695 97.2921 78.9787 100.588 70.2608C100.864 69.4687 101.083 68.6641 101.242 67.8516C101.314 67.5239 101.39 67.1854 101.475 66.8323L121.708 65.8889ZM94.413 67.1521L78.9042 109.655C77.2808 104.916 75.488 100.186 73.7462 95.5997C70.4695 86.965 67.0836 78.0412 64.7909 68.9126L94.413 67.1521ZM83.6919 40.4295C86.7351 40.1927 89.8092 40.0552 92.7907 39.9205C95.7801 39.7862 98.8708 39.6472 101.926 39.4095L122.34 60.1518L99.7243 61.5936L99.4404 61.6119L83.6919 40.4295ZM65.233 63.6189C69.0088 56.4093 73.946 50.226 79.5286 43.5442L91.0541 61.9335L65.233 63.6189ZM57.2545 69.4203C60.0437 78.9342 63.7309 88.3138 67.2974 97.387C68.3337 100.023 69.3983 102.731 70.4358 105.43C63.3524 98.2299 56.8043 90.5573 50.4584 83.1214C46.8491 78.8912 43.1205 74.5226 39.3287 70.2816C42.4084 69.8406 53.0845 69.3126 57.2545 69.4203ZM69.0954 41.4312C70.4835 41.3548 71.8713 41.2792 73.2589 41.2044C73.3898 41.1964 73.5154 41.1972 73.68 41.1993C68.3321 47.7582 62.4275 55.4252 58.7251 64.0332L36.4244 65.073C36.5495 64.8776 36.6916 64.6899 36.85 64.5117C41.9488 58.9838 46.2427 54.3371 50.6259 49.6263C51.7506 48.4156 52.9163 47.1939 54.041 46.0123C55.0944 44.9068 56.1437 43.7984 57.1884 42.6868C57.354 42.4734 57.5797 42.2967 57.8456 42.1722C58.1114 42.0477 58.4091 41.9793 58.712 41.9732C62.1748 41.8121 65.6929 41.6178 69.0954 41.4312Z" fill="#94B78A"/>
</svg>
