<svg width="159" height="155" viewBox="0 0 159 155" fill="none" xmlns="http://www.w3.org/2000/svg">
<path d="M2.80593 55.9065C-4.2039 83.4576 1.93438 107.762 21.0631 128.155C21.5608 128.682 22.0687 129.208 22.5759 129.716C32.8516 139.991 45.6503 146.335 55.7913 150.75C60.144 152.651 82.4777 154.959 88.5205 154.06C124.432 148.697 148.064 128.442 156.295 94.5566C157.866 87.9189 158.649 81.1189 158.627 74.2977C158.665 58.229 151.899 39.5479 137.947 25.5567C136.51 24.369 135.078 23.1386 133.694 21.9461C130.693 19.3655 127.59 16.6936 124.344 14.415C99.5459 -3.03844 73.7804 -3.1361 47.7664 6.11914C24.2139 14.4934 9.08782 31.2475 2.80593 55.9065ZM47.8674 14.3689C70.692 4.8841 93.5937 3.21019 115.931 17.4161C120.015 20.0163 130.903 28.8166 132.618 30.1384L132.727 30.2195L132.818 30.3205C141.533 39.5616 151.511 56.4584 151.291 73.8279C151.219 81.2549 150.213 88.6432 148.298 95.8195C142.625 116.443 129.06 131.473 106.829 141.752C84.2281 152.574 51.8171 141.634 43.1936 135.941C33.6624 129.425 25.3226 121.318 18.5388 111.975C7.89943 96.9118 5.51178 75.2593 11.2289 55.4656C13.9047 46.3264 18.5806 37.8972 24.9176 30.7891C31.2546 23.6809 39.094 18.072 47.8674 14.3689V14.3689Z" fill="#94B78A"/>
<g clip-path="url(#clip0_169_15)">
<path d="M33.2317 102.725C33.3096 104.135 33.5726 105.528 34.0141 106.869C34.7181 109.1 35.5592 109.479 37.7305 109.488L39.7796 109.497C46.1633 109.523 52.7656 109.548 59.2559 109.541C59.8942 109.527 60.5313 109.478 61.1642 109.394C61.8281 109.299 62.4979 109.252 63.1685 109.254C64.2189 109.279 65.292 109.363 66.3293 109.445C67.5956 109.544 68.9017 109.646 70.1981 109.646C70.2812 109.646 70.3641 109.646 70.4467 109.646C86.6597 109.475 99.7723 109.288 111.713 109.056C115.884 108.975 118.915 107.247 120.979 103.773C125.504 96.1519 129.019 87.5478 132.372 75.8732C132.873 73.9797 133.259 72.0571 133.527 70.1159C133.664 69.2487 133.806 68.3524 133.967 67.4785C133.971 67.4549 133.973 67.4304 133.973 67.406V64.6217C133.973 64.5769 133.966 64.5325 133.951 64.4903C133.767 63.9608 133.604 63.4023 133.447 62.8612C133.138 61.6098 132.673 60.403 132.064 59.2694C130.101 55.9789 126.793 54.0796 122.498 53.7767C118.449 53.4912 114.323 53.4155 110.334 53.3415C109.323 53.3228 108.313 53.3032 107.302 53.2826C105.271 53.2387 103.204 53.2499 101.206 53.2604C100.436 53.2645 99.6661 53.2677 98.8963 53.2701C100.191 49.8958 100.997 46.1414 101.506 41.1268C101.804 38.1761 101.999 34.3038 100.841 30.5242C100.022 27.8519 98.7338 26.9602 95.9198 27.1076C94.0245 27.1622 92.2174 27.927 90.8521 29.2525C90.5365 29.5628 90.2189 29.8712 89.8999 30.1778C88.2236 31.7233 86.6632 33.3916 85.2313 35.1688C83.4331 37.5211 81.7533 40.0199 80.1286 42.437C79.4181 43.4942 78.7076 44.5516 77.9855 45.6C74.5983 50.5148 70.5826 54.0938 65.7038 56.5373C65.324 56.7453 64.907 56.8755 64.4769 56.9198C64.0468 56.9641 63.6123 56.9219 63.1985 56.7956C59.6301 55.8733 56.6072 55.6495 53.6858 56.0901C51.4337 56.4303 49.1178 56.6405 46.8784 56.8429C46.0143 56.9205 45.1509 57 44.2883 57.0857C43.37 57.1764 42.4502 57.2577 41.5307 57.3387C40.0484 57.469 38.5156 57.6039 37.0099 57.7811C34.2598 58.105 33.1535 59.1499 32.6254 61.9226L32.5765 62.1725C32.4732 62.6287 32.4101 63.0932 32.3882 63.5606C32.3697 64.5853 32.3437 65.6096 32.3179 66.6342C32.2494 69.3449 32.1781 72.1475 32.252 74.9062C32.5168 84.7429 32.8961 94.4888 33.2317 102.725ZM60.1278 60.2747C60.0435 67.5456 60.5539 74.8419 61.0485 81.9007C61.5412 88.9391 62.0491 96.2124 61.9583 103.392H39.4329L39.4282 103.346C39.397 103.057 39.3647 102.759 39.3513 102.466C39.1203 97.0273 38.8893 91.5885 38.6584 86.1504C38.44 81.0002 38.222 75.8503 38.0041 70.7004C37.9833 70.2117 37.9641 69.7226 37.9464 69.2332C37.8852 67.6255 37.8225 65.9628 37.6743 64.3308C37.5704 63.1866 37.9125 62.7314 38.9829 62.591C40.2721 62.4216 41.5601 62.2474 42.847 62.0685C45.2958 61.7322 47.8277 61.3851 50.3222 61.0966C52.6428 60.8286 55.0138 60.6312 57.3071 60.4404C58.1162 60.3734 58.9253 60.305 59.7344 60.2355C59.8669 60.2324 59.9992 60.2456 60.1285 60.2747H60.1278ZM96.9456 40.575C96.7027 44.0575 95.817 47.7538 94.1577 52.2067C93.6246 53.6382 93.2035 55.2249 93.7297 57.13C93.7516 57.21 93.7982 57.281 93.8621 57.3332C93.9264 57.3854 94.0049 57.4162 94.0872 57.4213C94.3952 57.4399 94.7081 57.4624 95.0226 57.4849C95.7112 57.5342 96.4229 57.5853 97.1342 57.6012C99.1607 57.64 101.187 57.6672 103.216 57.6932C107.692 57.751 112.32 57.8095 116.862 58.0197C119.308 58.1558 121.72 58.6578 124.019 59.5094C126.836 60.5353 128.195 62.7029 128.057 65.9508C127.845 70.9568 126.613 76.1679 124.18 82.3499C122.569 86.4409 120.75 90.7705 118.28 96.3901C117.711 97.604 117.06 98.7773 116.333 99.9024C116.11 100.265 115.887 100.628 115.669 100.992C114.578 102.823 112.873 103.858 110.604 104.07C107.527 104.357 103.945 104.666 100.393 104.695C92.5053 104.759 84.4842 104.749 76.7265 104.739C74.2819 104.735 71.8374 104.733 69.3924 104.732C68.9597 104.732 68.5152 104.693 68.1222 104.656L67.9597 104.641L64.534 60.5156C65.1095 60.2576 65.6791 60.0113 66.2419 59.7669C67.651 59.1565 68.9816 58.5801 70.2834 57.8862C75.5048 55.0991 79.8915 50.685 84.0901 43.9942C86.358 40.3806 89.1859 36.2186 92.9595 32.7466C93.6766 32.0597 94.5141 31.5131 95.4294 31.1344C96.0914 30.8815 96.3701 30.9194 96.4871 30.9958C96.6461 31.0989 96.7473 31.4224 96.78 31.9313C97.0264 34.8055 97.0818 37.6933 96.9456 40.575Z" fill="#94B78A"/>
<path d="M50.4276 61.7954C50.4065 61.7954 50.3853 61.7969 50.3644 61.7998C45.6882 62.4979 42.84 65.1417 42.7434 68.8753C42.6491 72.5599 45.6505 75.544 49.5766 75.6696C49.6535 75.6723 49.7278 75.6735 49.8029 75.6735C51.6366 75.6758 53.4022 74.9731 54.7397 73.7091C55.3537 73.1362 55.8477 72.4454 56.1931 71.6775C56.5384 70.9095 56.7282 70.0795 56.7509 69.2367C56.7305 67.1939 55.9212 65.2398 54.4948 63.7883C53.2816 62.5223 51.8367 61.8144 50.4276 61.7954ZM50.6898 69.6851C50.1609 70.2971 49.4121 70.3596 48.4645 69.8713C47.6497 69.4512 47.3745 68.847 47.6458 68.074C47.8087 67.6741 48.0131 67.2925 48.2555 66.936C48.3456 66.7902 48.4418 66.6343 48.5438 66.4644C48.722 66.5773 48.8946 66.682 49.0605 66.7828C49.5432 67.0462 49.9923 67.3677 50.3983 67.7404C50.7893 68.1407 51.3472 68.9269 50.6898 69.6851Z" fill="#94B78A"/>
</g>
<defs>
<clipPath id="clip0_169_15">
<rect width="102" height="83" fill="white" transform="translate(32 27)"/>
</clipPath>
</defs>
</svg>
