<svg width="159" height="155" viewBox="0 0 159 155" fill="none" xmlns="http://www.w3.org/2000/svg">
<path d="M82.5376 100.076C72.3605 107.501 62.4084 114.75 52.4754 122.025C51.7461 122.56 51.1897 123.325 50.4866 123.902C48.8599 125.236 47.3243 124.701 46.955 122.62C46.8129 121.792 46.8526 120.941 47.0713 120.129C48.1073 116.407 49.0964 112.662 50.3564 109.014C52.7434 102.105 55.3027 95.2554 57.7931 88.3825C58.0526 87.6664 58.3361 86.9595 58.5588 86.3771C51.5759 79.9948 44.9652 73.4805 38.5135 66.805C37.6458 65.8907 36.9114 64.8581 36.332 63.7381C35.5943 62.3312 36.1072 61.3872 37.6596 61.1815C39.1928 60.9708 40.7387 60.8656 42.2863 60.8667C48.1955 60.9014 54.1039 61.0326 60.0131 61.0656C62.3286 61.0787 64.6449 60.9281 67.0838 60.8481C68.209 58.036 69.3123 55.3106 70.3919 52.576C73.2324 45.3806 76.068 38.1828 78.8983 30.9826C78.9963 30.7188 79.1109 30.4614 79.241 30.2118C80.0603 28.7139 81.5962 28.5734 82.6213 29.9651C83.0519 30.6073 83.4021 31.3 83.6641 32.0276C85.89 37.5021 88.0099 43.0213 90.3402 48.45C91.6965 51.6088 93.3825 54.6266 94.9573 57.7854C95.6308 57.7854 96.1826 57.7964 96.7366 57.7854C103.627 57.6275 110.518 57.4286 117.409 57.3223C120.708 57.2715 124.01 57.4172 127.31 57.4269C128.388 57.4303 129.284 57.7003 129.761 58.7165C129.994 59.2008 130.059 59.7493 129.945 60.2748C129.832 60.8003 129.547 61.2727 129.134 61.6171C126.964 63.7254 124.799 65.8425 122.536 67.8475C116.529 73.1694 110.47 78.4322 104.437 83.7246C103.866 84.2257 103.331 84.7688 102.799 85.2741C102.858 85.6005 102.943 85.9217 103.052 86.2349C107.645 96.1171 110.492 106.542 112.663 117.178C113.035 118.679 113.323 120.199 113.527 121.731C113.748 124.18 112.925 124.524 110.573 124.902C107.282 125.435 105.282 123.699 103.19 121.783C97.7397 116.788 92.286 111.794 87.5231 106.107C85.8989 104.168 84.3005 102.21 82.5376 100.076ZM54.3122 115.041L54.613 115.319C55.009 115.039 55.4159 114.775 55.7992 114.478C63.9119 108.175 72.0257 101.872 80.1406 95.5694C82.1561 94.0085 83.2766 94.0263 85.1869 95.6905C86.4676 96.7935 87.6753 97.9786 88.8013 99.2391C94.0353 105.168 99.9305 110.411 105.737 115.746C105.972 115.963 106.247 116.135 106.711 116.483C106.641 115.958 106.633 115.687 106.566 115.432C104.186 106.244 101.773 97.0652 98.3498 88.1955C97.4397 85.8366 97.6814 83.998 99.7142 82.1852C106.439 76.1885 113.024 70.0332 119.658 63.9379C120.203 63.4372 120.745 62.9326 121.604 62.1373C120.411 62.1373 119.712 62.1293 119.014 62.1373C111.416 62.241 103.813 62.2389 96.2202 62.503C92.9494 62.6169 90.8963 61.2332 89.482 58.4964C89.4495 58.4338 89.4199 58.3695 89.3924 58.3051C88.0403 55.1375 86.6037 52.0032 85.364 48.7924C84.0723 45.4486 82.9779 42.0259 81.7796 38.6436C81.5518 38.0007 81.2425 37.3869 80.8166 36.4028C79.9251 38.6228 79.0948 40.4568 78.4441 42.353C76.3893 48.343 74.3524 54.34 72.4057 60.3659C71.1504 64.2519 68.3041 65.9001 64.5807 65.6431C59.0387 65.2622 53.4849 65.0408 47.9349 64.7877C46.4137 64.7183 44.8892 64.7772 43.0985 64.7772C44.9999 66.4965 46.7745 68.0723 48.5141 69.6832C53.162 73.9825 57.8176 78.2751 62.4156 82.6271C63.1529 83.3796 63.7578 84.2515 64.2046 85.206C64.8313 86.4466 64.6199 87.445 63.444 88.118C62.5837 88.6107 62.3243 89.3031 62.0615 90.0976C60.6477 94.3725 59.1791 98.6271 57.8413 102.922C56.5931 106.942 55.4835 111.001 54.3122 115.041Z" fill="#94B78A"/>
<path d="M2.80593 55.9065C-4.2039 83.4576 1.93438 107.762 21.0631 128.155C21.5608 128.682 22.0687 129.208 22.5759 129.716C32.8516 139.991 45.6503 146.335 55.7913 150.75C60.144 152.651 82.4777 154.959 88.5205 154.06C124.432 148.697 148.064 128.442 156.295 94.5566C157.866 87.9189 158.649 81.1189 158.627 74.2977C158.665 58.229 151.899 39.5479 137.947 25.5567C136.51 24.369 135.078 23.1386 133.694 21.9461C130.693 19.3655 127.59 16.6936 124.344 14.415C99.5459 -3.03844 73.7804 -3.1361 47.7664 6.11914C24.2139 14.4934 9.08782 31.2475 2.80593 55.9065ZM47.8674 14.3689C70.692 4.8841 93.5937 3.21019 115.931 17.4161C120.015 20.0163 130.903 28.8166 132.618 30.1384L132.727 30.2195L132.818 30.3205C141.533 39.5616 151.511 56.4584 151.291 73.8279C151.219 81.2549 150.213 88.6432 148.298 95.8195C142.625 116.443 129.06 131.473 106.829 141.752C84.2281 152.574 51.8171 141.634 43.1936 135.941C33.6623 129.425 25.3226 121.318 18.5388 111.975C7.89943 96.9118 5.51178 75.2593 11.2289 55.4656C13.9047 46.3264 18.5806 37.8972 24.9176 30.7891C31.2546 23.6809 39.094 18.072 47.8674 14.3689Z" fill="#94B78A"/>
</svg>
