<svg width="159" height="155" viewBox="0 0 159 155" fill="none" xmlns="http://www.w3.org/2000/svg">
<path d="M2.80593 55.9065C-4.2039 83.4576 1.93438 107.762 21.0631 128.155C21.5608 128.682 22.0687 129.208 22.5759 129.716C32.8516 139.991 45.6503 146.335 55.7913 150.75C60.144 152.651 82.4777 154.959 88.5205 154.06C124.432 148.697 148.064 128.442 156.295 94.5566C157.866 87.9189 158.649 81.1189 158.627 74.2977C158.665 58.229 151.899 39.5479 137.947 25.5567C136.51 24.369 135.078 23.1386 133.694 21.9461C130.693 19.3655 127.59 16.6936 124.344 14.415C99.5459 -3.03844 73.7804 -3.1361 47.7664 6.11914C24.2139 14.4934 9.08782 31.2475 2.80593 55.9065ZM47.8674 14.3689C70.692 4.8841 93.5937 3.21019 115.931 17.4161C120.015 20.0163 130.903 28.8166 132.618 30.1384L132.727 30.2195L132.818 30.3205C141.533 39.5616 151.511 56.4584 151.291 73.8279C151.219 81.2549 150.213 88.6432 148.298 95.8195C142.625 116.443 129.06 131.473 106.829 141.752C84.2281 152.574 51.8171 141.634 43.1936 135.941C33.6624 129.425 25.3226 121.318 18.5388 111.975C7.89943 96.9118 5.51178 75.2593 11.2289 55.4656C13.9047 46.3264 18.5806 37.8972 24.9176 30.7891C31.2546 23.6809 39.094 18.072 47.8674 14.3689V14.3689Z" fill="#94B78A"/>
<path d="M63.7843 102.863C64.7673 101.761 65.3073 101.203 65.8016 100.593C81.6499 81.0533 99.0064 63.4617 116.466 46.0035C117.125 45.3441 117.801 44.503 118.582 44.2673C119.523 43.9828 121.059 43.7959 121.48 44.3992C122.045 45.2116 122.146 46.9776 121.801 48.0452C121.391 49.3152 120.391 50.4028 119.484 51.3538C114.073 57.0282 108.51 62.5075 103.193 68.3C92.0804 80.4119 81.0382 92.6139 70.0668 104.906C65.2594 110.281 63.4092 110.499 58.9855 104.755C56.0736 100.973 47.2854 88.2267 44.5941 84.211C44.214 83.5867 43.8755 82.9286 43.5815 82.2426C42.9723 80.9717 42.5776 79.5723 43.7838 78.5869C45.128 77.49 46.0823 78.6347 46.8786 79.8265C47.6849 81.0333 48.3724 82.3592 49.2357 83.5028C51.9158 87.0533 60.8897 99.12 63.7843 102.863Z" fill="#94B78A"/>
</svg>
